<?xml version="1.0" encoding="UTF-8"?>
<svg width="1e3" height="1e3" version="1.1" viewBox="0 0 1e3 1e3" xml:space="preserve" xmlns="http://www.w3.org/2000/svg"><g display="none"><g transform="matrix(.24394 0 0 -.24394 -135.94 1072.6)" display="inline"><path d="m2445 4394c-16-2-66-9-110-15-222-28-425-89-611-182-306-152-499-305-724-573-43-52-146-209-195-299-288-528-327-1177-106-1729 71-175 199-398 309-536 59-73 222-238 297-299 196-160 450-296 690-371 628-197 1355-73 1850 315 167 131 222 201 246 308 33 151-58 326-203 393-55 25-74 29-153 28-104 0-155-20-251-99-159-129-369-243-524-284-277-72-576-56-834 46-444 176-760 564-842 1036-24 138-15 398 19 527 51 194 129 354 241 500 260 335 653 530 1062 530 309-1 529-82 853-314 140-100 190-120 293-114 217 11 381 213 338 416-22 104-68 169-194 271-270 220-596 362-981 427-87 14-409 27-470 18zm355-244c267-31 414-75 650-195 230-115 410-265 410-338 0-38-32-85-67-102-52-25-101-15-166 33-270 200-488 305-747 359-128 26-439 23-573-6-245-53-512-177-671-311-162-138-226-205-323-344-122-174-202-356-254-584-30-129-37-405-14-543 35-217 95-384 206-580 65-113 255-331 367-420 199-157 430-266 678-321 136-30 483-32 613-4 235 51 459 157 688 328 51 38 106 73 122 78 39 11 88-14 118-59 44-66 27-107-84-204-380-330-973-475-1510-367-639 128-1170 609-1369 1240-70 223-95 567-59 813 97 650 541 1191 1173 1429 247 92 550 129 812 98z"/><path d="m3525 3083c-63-18-106-82-130-193-68-319-69-324-93-445-5-27-24-115-41-195-18-80-36-165-41-190s-23-110-39-190c-43-201-41-238 16-268 31-17 129-15 163 3 72 37 82 66 175 525 52 253 68 320 77 320 4 0 26-38 48-85 74-157 117-250 150-320 178-381 190-404 231-432 42-30 124-31 178-3 77 39 80 51 256 910 20 96 47 227 60 290 36 174 37 191 17 230-18 37-41 47-109 49-76 2-131-33-160-99-12-29-49-191-93-410-19-94-71-336-76-352-7-24-21-23-29 3-4 11-29 68-57 127-27 59-57 123-65 142-9 19-36 78-60 130-25 52-63 136-86 185-78 168-112 229-139 249-27 19-113 30-153 19z"/><path d="m2675 3067c-95-37-101-51-180-432-14-66-32-151-40-190-23-103-63-297-85-405-11-52-31-148-45-214-33-158-33-190 4-227 25-25 37-29 84-29 73 0 121 22 152 68 23 34 69 217 121 482l9 45 242 3c242 2 243 2 248 25 9 40 48 231 53 259l4 28-238 2c-196 3-238 5-236 17 60 283 93 469 88 496-7 38-28 58-75 74-41 14-67 13-106-2z" style="mix-blend-mode:normal"/></g></g><g><g transform="matrix(.24394 0 0 -.24394 -135.94 1072.6)" fill="#0924a9"><path d="m2445 4394c-16-2-66-9-110-15-222-28-425-89-611-182-306-152-499-305-724-573-43-52-146-209-195-299-288-528-327-1177-106-1729 71-175 199-398 309-536 59-73 222-238 297-299 196-160 450-296 690-371 628-197 1355-73 1850 315 167 131 222 201 246 308 33 151-58 326-203 393-55 25-74 29-153 28-104 0-155-20-251-99-159-129-369-243-524-284-277-72-576-56-834 46-444 176-760 564-842 1036-24 138-15 398 19 527 51 194 129 354 241 500 260 335 653 530 1062 530 309-1 529-82 853-314 140-100 190-120 293-114 217 11 381 213 338 416-22 104-68 169-194 271-270 220-596 362-981 427-87 14-409 27-470 18zm355-244c267-31 414-75 650-195 230-115 410-265 410-338 0-38-32-85-67-102-52-25-101-15-166 33-270 200-488 305-747 359-128 26-439 23-573-6-245-53-512-177-671-311-162-138-226-205-323-344-122-174-202-356-254-584-30-129-37-405-14-543 35-217 95-384 206-580 65-113 255-331 367-420 199-157 430-266 678-321 136-30 483-32 613-4 235 51 459 157 688 328 51 38 106 73 122 78 39 11 88-14 118-59 44-66 27-107-84-204-380-330-973-475-1510-367-639 128-1170 609-1369 1240-70 223-95 567-59 813 97 650 541 1191 1173 1429 247 92 550 129 812 98z"/><path d="m3525 3083c-63-18-106-82-130-193-68-319-69-324-93-445-5-27-24-115-41-195-18-80-36-165-41-190s-23-110-39-190c-43-201-41-238 16-268 31-17 129-15 163 3 72 37 82 66 175 525 52 253 68 320 77 320 4 0 26-38 48-85 74-157 117-250 150-320 178-381 190-404 231-432 42-30 124-31 178-3 77 39 80 51 256 910 20 96 47 227 60 290 36 174 37 191 17 230-18 37-41 47-109 49-76 2-131-33-160-99-12-29-49-191-93-410-19-94-71-336-76-352-7-24-21-23-29 3-4 11-29 68-57 127-27 59-57 123-65 142-9 19-36 78-60 130-25 52-63 136-86 185-78 168-112 229-139 249-27 19-113 30-153 19z"/><path d="m2675 3067c-95-37-101-51-180-432-14-66-32-151-40-190-23-103-63-297-85-405-11-52-31-148-45-214-33-158-33-190 4-227 25-25 37-29 84-29 73 0 121 22 152 68 23 34 69 217 121 482l9 45 242 3c242 2 243 2 248 25 9 40 48 231 53 259l4 28-238 2c-196 3-238 5-236 17 60 283 93 469 88 496-7 38-28 58-75 74-41 14-67 13-106-2z" style="mix-blend-mode:normal"/></g></g><g transform="scale(3.7795)" display="none"><path d="m132.29 0a132.29 132.29 0 0 0-132.29 132.29 132.29 132.29 0 0 0 132.29 132.29 132.29 132.29 0 0 0 132.29-132.29 132.29 132.29 0 0 0-132.29-132.29zm0 47.625a84.667 84.667 0 0 1 84.667 84.667 84.667 84.667 0 0 1-84.667 84.667 84.667 84.667 0 0 1-84.667-84.667 84.667 84.667 0 0 1 84.667-84.667z" display="inline" stroke-width=".47141"/><g><circle cx="333.41" cy="43.07" r="23.812" display="inline" fill="#787878" stroke-width=".30342"/><path d="m132.29 132.29 132.29-132.29v264.58z" display="inline" fill="#4f4f4f" stroke-width="0"/><rect x="62.255" y="112.58" width="49.901" height="19.844" display="inline" fill="#4f4f4f" stroke-width="0"/></g><g fill="none" stroke="#000" stroke-linecap="round"><path d="m193.51 94.42-16.238 77.559" display="inline" opacity=".523" stroke-width="19.844"/><path d="m196.1 94.939 33.721 75.225" display="inline" stroke-width="21.167"/><path d="m230.86 171.72 19.195-77.819" display="inline" stroke-width="19.844"/></g></g></svg>
