<?xml version="1.0" encoding="UTF-8" standalone="no"?>
<!-- Created with Inkscape (http://www.inkscape.org/) -->

<svg
   width="1080"
   height="1080"
   viewBox="0 0 1080 1080"
   version="1.1"
   id="svg1"
   xml:space="preserve"
   inkscape:version="1.4 (86a8ad7, 2024-10-11)"
   sodipodi:docname="CHN-packed.svg"
   xmlns:inkscape="http://www.inkscape.org/namespaces/inkscape"
   xmlns:sodipodi="http://sodipodi.sourceforge.net/DTD/sodipodi-0.dtd"
   xmlns="http://www.w3.org/2000/svg"
   xmlns:svg="http://www.w3.org/2000/svg"><sodipodi:namedview
     id="namedview1"
     pagecolor="#505050"
     bordercolor="#ffffff"
     borderopacity="1"
     inkscape:showpageshadow="0"
     inkscape:pageopacity="0"
     inkscape:pagecheckerboard="1"
     inkscape:deskcolor="#505050"
     inkscape:document-units="px"
     inkscape:zoom="0.50835204"
     inkscape:cx="382.60887"
     inkscape:cy="602.92863"
     inkscape:window-width="1920"
     inkscape:window-height="1009"
     inkscape:window-x="1912"
     inkscape:window-y="-8"
     inkscape:window-maximized="1"
     inkscape:current-layer="g9" /><defs
     id="defs1" /><g
     inkscape:label="icon"
     inkscape:groupmode="layer"
     id="g6"
     style="display:none;fill:#0823a8;fill-opacity:1;stroke-width:0;stroke-dasharray:none"
     transform="matrix(1.9162205,0,0,1.9162205,-308.76517,-439.98152)"><rect
       style="fill:#0823a8;fill-opacity:1;stroke-width:0;stroke-linejoin:round;stroke-dasharray:none;paint-order:stroke fill markers"
       id="rect6"
       width="563.60944"
       height="563.60944"
       x="161.13239"
       y="229.60902"
       inkscape:label="background" /><g
       inkscape:label="logo"
       inkscape:groupmode="layer"
       id="g9"
       style="fill:#ffffff;fill-opacity:1;stroke-width:0;stroke-dasharray:none"
       transform="matrix(0.62500001,0,0,0.62500001,166.10142,191.78016)"><path
         fill="#000000"
         opacity="1"
         stroke="none"
         d="m 742.74915,489.8866 c 4.3399,-20.58756 8.69397,-40.74338 12.87225,-60.93561 3.2055,-15.49127 13.78894,-23.41568 29.50275,-21.80679 11.49078,1.17654 16.80908,8.32189 14.43426,19.73254 -5.45215,26.19733 -11.03833,52.3667 -16.5213,78.55765 -5.92657,28.31024 -11.82776,56.62579 -17.68134,84.95123 -3.25958,15.77319 -12.31823,23.97614 -26.7807,23.78894 -9.88971,-0.12799 -16.48187,-5.32422 -20.58422,-14.06781 -8.05897,-17.17645 -16.13459,-34.34509 -24.20698,-51.51526 -7.22052,-15.3584 -14.42254,-30.72564 -21.70452,-46.05481 -0.75336,-1.5859 -1.18659,-3.48504 -3.38532,-4.75512 -2.50848,6.11727 -3.03162,12.58004 -4.37488,18.78588 -5.4884,25.35682 -10.62536,50.78962 -16.08056,76.15381 -3.5174,16.35401 -18.70624,25.34638 -34.03284,20.44519 -7.51526,-2.40326 -10.91443,-8.23846 -10.23816,-16.15857 0.96747,-11.32892 3.97656,-22.2409 6.26227,-33.29223 8.7951,-42.52374 17.75793,-85.01291 26.75873,-127.49372 0.99713,-4.70617 2.28631,-9.41528 4.05352,-13.88018 3.85621,-9.74253 11.11115,-15.12146 21.74848,-15.55786 10.3938,-0.42649 18.11798,3.88241 22.54211,13.35137 10.0727,21.55829 19.98535,43.19138 29.9549,64.79785 5.58008,12.09342 11.13952,24.19633 16.72107,36.28907 0.60601,1.31311 1.09979,2.74054 2.98712,3.82434 3.51501,-11.6062 4.89233,-23.34238 7.75336,-35.15991 z"
         id="path7"
         inkscape:label="N"
         transform="translate(-83.99685,3.2914117)"
         style="fill:#ffffff;fill-opacity:1;stroke-width:0;stroke-dasharray:none" /><path
         fill="#000000"
         opacity="1"
         stroke="none"
         d="m 502.94812,498.07489 c 4.74445,-22.8866 9.37604,-45.36758 14.08954,-67.83139 4.1908,-19.9729 19.58691,-24.31244 34.6333,-20.27536 8.41504,2.25784 11.43152,9.96579 9.138,20.92291 -3.64465,17.41202 -7.11999,34.8616 -10.99927,52.22104 -1.08398,4.85077 0.55542,5.72293 4.89826,5.69009 19.15344,-0.1448 38.30871,-0.0545 57.46331,-0.042 7.3844,0.005 7.49354,0.0355 6.10108,7.02393 -2.14447,10.76236 -4.60364,21.4638 -6.62152,32.24866 -0.77057,4.11847 -2.72241,5.38012 -6.78034,5.34594 -19.81952,-0.16687 -39.64215,0.0291 -59.46106,-0.16766 -4.51812,-0.0448 -6.43805,1.44446 -7.33282,5.96216 -3.68451,18.60412 -7.64038,37.15674 -11.70538,55.68249 -3.41016,15.54132 -15.43595,23.59662 -31.12882,21.17938 -9.60059,-1.47869 -14.8887,-8.6853 -12.9378,-18.35247 4.4425,-22.01361 9.13574,-43.9765 13.71051,-65.9635 2.30392,-11.07312 4.57168,-22.15384 6.93301,-33.64423 z"
         id="path8"
         inkscape:label="H"
         transform="translate(-83.99685,3.2914117)"
         style="fill:#ffffff;fill-opacity:1;stroke-width:0;stroke-dasharray:none" /><path
         fill="#000000"
         opacity="1"
         stroke="none"
         d="m 648.21405,253.69879 c 24.64917,11.52451 47.14118,25.58917 66.5351,44.3429 14.54577,14.06552 20.27362,31.02832 14.69818,50.45611 -5.43878,18.95172 -18.85871,30.89435 -38.08625,35.10001 -14.42181,3.15448 -28.10339,0.27423 -40.15142,-8.86084 -21.02765,-15.94357 -42.74927,-30.71149 -67.71381,-40.0253 -24.45587,-9.12399 -49.92236,-10.7666 -75.37122,-7.91727 -63.35226,7.09299 -110.14071,40.12049 -141.48953,94.92691 -18.43198,32.22422 -25.62173,67.39951 -21.44348,104.42408 6.88779,61.0343 37.61707,107.03418 89.42718,139.3095 20.34083,12.67139 42.4744,20.9856 66.23169,23.88953 30.61448,3.74207 60.89048,1.93427 89.80576,-10.02161 21.07794,-8.71527 40.19861,-20.83361 57.87408,-35.19958 8.89649,-7.23084 18.66095,-11.7251 30.292,-12.75806 22.52166,-2.00006 47.57208,17.00684 51.50445,39.45349 3.52411,20.11622 -2.60388,36.26258 -17.84204,50.01191 -33.80444,30.5014 -72.89191,50.59259 -116.97723,61.08661 -26.65662,6.34539 -53.63172,8.91455 -81.19147,7.72936 -51.80252,-2.22778 -99.08386,-17.73614 -142.1626,-46.06817 -53.62918,-35.27094 -90.56988,-83.67365 -111.74643,-144.25287 -10.66514,-30.50952 -15.85217,-61.97131 -15.22735,-94.13211 1.43236,-73.72641 27.51977,-137.73203 78.16943,-191.43152 36.83569,-39.05377 81.66492,-65.19633 133.4888,-78.44287 65.64166,-16.77844 129.44489,-9.79243 191.37616,18.37979 M 415.00757,322.4624 c 30.54956,-18.23187 63.36026,-28.90637 99.06415,-31.00949 26.45733,-1.55844 52.22204,1.43888 77.27874,9.66852 29.50409,9.69034 55.09186,26.58362 79.70319,45.06046 7.72943,5.80282 15.8501,5.14205 22.0918,-1.98029 5.77111,-6.58533 5.02691,-14.41113 -2.1875,-21.16928 -5.71448,-5.35306 -11.50025,-10.64469 -17.95429,-15.12207 -58.75543,-40.76084 -123.57709,-55.69245 -193.6767,-41.99146 -75.34985,14.72712 -131.82748,57.11515 -169.25521,124.01352 -27.83387,49.75025 -35.63733,103.39987 -26.78589,159.46936 7.81753,49.52051 29.29452,92.85437 64.03619,128.61432 59.57138,61.31757 132.36517,86.56921 217.39035,74.68518 34.93274,-4.88257 67.41748,-16.81317 97.05731,-36.10077 10.91773,-7.10437 21.08472,-15.21185 30.39911,-24.32574 5.02783,-4.9195 6.17804,-11.48395 3.38666,-16.90491 -3.23065,-6.27423 -9.40973,-9.80908 -15.87109,-9.03436 -4.55896,0.54669 -7.85608,3.5271 -11.2475,6.15668 -11.99768,9.30255 -24.46716,17.8518 -37.5766,25.55444 -41.414,24.33325 -86.05359,32.37396 -133.23419,25.70691 -47.1257,-6.6593 -87.82935,-27.0744 -121.98935,-60.29474 -27.45709,-26.70178 -46.69574,-58.48126 -57.34326,-95.23169 -7.03778,-24.29138 -9.77585,-49.11267 -7.79776,-74.50943 1.36502,-17.52567 3.95505,-34.76648 9.52527,-51.37018 17.13058,-51.06296 48.72177,-90.87988 94.98657,-119.88498 z"
         id="path9"
         inkscape:label="C"
         transform="translate(-83.99685,3.2914117)"
         style="fill:#ffffff;fill-opacity:1;stroke-width:0;stroke-dasharray:none" /></g></g><g
     inkscape:label="logo"
     inkscape:groupmode="layer"
     id="layer1"
     style="display:none;fill:#0823a8;fill-opacity:1;stroke-width:0;stroke-dasharray:none"
     transform="matrix(1.9162205,0,0,1.9162205,-308.76517,-439.98152)"><path
       fill="#000000"
       opacity="1"
       stroke="none"
       d="m 742.74915,489.8866 c 4.3399,-20.58756 8.69397,-40.74338 12.87225,-60.93561 3.2055,-15.49127 13.78894,-23.41568 29.50275,-21.80679 11.49078,1.17654 16.80908,8.32189 14.43426,19.73254 -5.45215,26.19733 -11.03833,52.3667 -16.5213,78.55765 -5.92657,28.31024 -11.82776,56.62579 -17.68134,84.95123 -3.25958,15.77319 -12.31823,23.97614 -26.7807,23.78894 -9.88971,-0.12799 -16.48187,-5.32422 -20.58422,-14.06781 -8.05897,-17.17645 -16.13459,-34.34509 -24.20698,-51.51526 -7.22052,-15.3584 -14.42254,-30.72564 -21.70452,-46.05481 -0.75336,-1.5859 -1.18659,-3.48504 -3.38532,-4.75512 -2.50848,6.11727 -3.03162,12.58004 -4.37488,18.78588 -5.4884,25.35682 -10.62536,50.78962 -16.08056,76.15381 -3.5174,16.35401 -18.70624,25.34638 -34.03284,20.44519 -7.51526,-2.40326 -10.91443,-8.23846 -10.23816,-16.15857 0.96747,-11.32892 3.97656,-22.2409 6.26227,-33.29223 8.7951,-42.52374 17.75793,-85.01291 26.75873,-127.49372 0.99713,-4.70617 2.28631,-9.41528 4.05352,-13.88018 3.85621,-9.74253 11.11115,-15.12146 21.74848,-15.55786 10.3938,-0.42649 18.11798,3.88241 22.54211,13.35137 10.0727,21.55829 19.98535,43.19138 29.9549,64.79785 5.58008,12.09342 11.13952,24.19633 16.72107,36.28907 0.60601,1.31311 1.09979,2.74054 2.98712,3.82434 3.51501,-11.6062 4.89233,-23.34238 7.75336,-35.15991 z"
       id="path2"
       inkscape:label="N"
       transform="translate(-83.99685,3.2914117)"
       style="fill:#0823a8;fill-opacity:1;stroke-width:0;stroke-dasharray:none" /><path
       fill="#000000"
       opacity="1"
       stroke="none"
       d="m 502.94812,498.07489 c 4.74445,-22.8866 9.37604,-45.36758 14.08954,-67.83139 4.1908,-19.9729 19.58691,-24.31244 34.6333,-20.27536 8.41504,2.25784 11.43152,9.96579 9.138,20.92291 -3.64465,17.41202 -7.11999,34.8616 -10.99927,52.22104 -1.08398,4.85077 0.55542,5.72293 4.89826,5.69009 19.15344,-0.1448 38.30871,-0.0545 57.46331,-0.042 7.3844,0.005 7.49354,0.0355 6.10108,7.02393 -2.14447,10.76236 -4.60364,21.4638 -6.62152,32.24866 -0.77057,4.11847 -2.72241,5.38012 -6.78034,5.34594 -19.81952,-0.16687 -39.64215,0.0291 -59.46106,-0.16766 -4.51812,-0.0448 -6.43805,1.44446 -7.33282,5.96216 -3.68451,18.60412 -7.64038,37.15674 -11.70538,55.68249 -3.41016,15.54132 -15.43595,23.59662 -31.12882,21.17938 -9.60059,-1.47869 -14.8887,-8.6853 -12.9378,-18.35247 4.4425,-22.01361 9.13574,-43.9765 13.71051,-65.9635 2.30392,-11.07312 4.57168,-22.15384 6.93301,-33.64423 z"
       id="path3"
       inkscape:label="H"
       transform="translate(-83.99685,3.2914117)"
       style="fill:#0823a8;fill-opacity:1;stroke-width:0;stroke-dasharray:none" /><path
       fill="#000000"
       opacity="1"
       stroke="none"
       d="m 648.21405,253.69879 c 24.64917,11.52451 47.14118,25.58917 66.5351,44.3429 14.54577,14.06552 20.27362,31.02832 14.69818,50.45611 -5.43878,18.95172 -18.85871,30.89435 -38.08625,35.10001 -14.42181,3.15448 -28.10339,0.27423 -40.15142,-8.86084 -21.02765,-15.94357 -42.74927,-30.71149 -67.71381,-40.0253 -24.45587,-9.12399 -49.92236,-10.7666 -75.37122,-7.91727 -63.35226,7.09299 -110.14071,40.12049 -141.48953,94.92691 -18.43198,32.22422 -25.62173,67.39951 -21.44348,104.42408 6.88779,61.0343 37.61707,107.03418 89.42718,139.3095 20.34083,12.67139 42.4744,20.9856 66.23169,23.88953 30.61448,3.74207 60.89048,1.93427 89.80576,-10.02161 21.07794,-8.71527 40.19861,-20.83361 57.87408,-35.19958 8.89649,-7.23084 18.66095,-11.7251 30.292,-12.75806 22.52166,-2.00006 47.57208,17.00684 51.50445,39.45349 3.52411,20.11622 -2.60388,36.26258 -17.84204,50.01191 -33.80444,30.5014 -72.89191,50.59259 -116.97723,61.08661 -26.65662,6.34539 -53.63172,8.91455 -81.19147,7.72936 -51.80252,-2.22778 -99.08386,-17.73614 -142.1626,-46.06817 -53.62918,-35.27094 -90.56988,-83.67365 -111.74643,-144.25287 -10.66514,-30.50952 -15.85217,-61.97131 -15.22735,-94.13211 1.43236,-73.72641 27.51977,-137.73203 78.16943,-191.43152 36.83569,-39.05377 81.66492,-65.19633 133.4888,-78.44287 65.64166,-16.77844 129.44489,-9.79243 191.37616,18.37979 M 415.00757,322.4624 c 30.54956,-18.23187 63.36026,-28.90637 99.06415,-31.00949 26.45733,-1.55844 52.22204,1.43888 77.27874,9.66852 29.50409,9.69034 55.09186,26.58362 79.70319,45.06046 7.72943,5.80282 15.8501,5.14205 22.0918,-1.98029 5.77111,-6.58533 5.02691,-14.41113 -2.1875,-21.16928 -5.71448,-5.35306 -11.50025,-10.64469 -17.95429,-15.12207 -58.75543,-40.76084 -123.57709,-55.69245 -193.6767,-41.99146 -75.34985,14.72712 -131.82748,57.11515 -169.25521,124.01352 -27.83387,49.75025 -35.63733,103.39987 -26.78589,159.46936 7.81753,49.52051 29.29452,92.85437 64.03619,128.61432 59.57138,61.31757 132.36517,86.56921 217.39035,74.68518 34.93274,-4.88257 67.41748,-16.81317 97.05731,-36.10077 10.91773,-7.10437 21.08472,-15.21185 30.39911,-24.32574 5.02783,-4.9195 6.17804,-11.48395 3.38666,-16.90491 -3.23065,-6.27423 -9.40973,-9.80908 -15.87109,-9.03436 -4.55896,0.54669 -7.85608,3.5271 -11.2475,6.15668 -11.99768,9.30255 -24.46716,17.8518 -37.5766,25.55444 -41.414,24.33325 -86.05359,32.37396 -133.23419,25.70691 -47.1257,-6.6593 -87.82935,-27.0744 -121.98935,-60.29474 -27.45709,-26.70178 -46.69574,-58.48126 -57.34326,-95.23169 -7.03778,-24.29138 -9.77585,-49.11267 -7.79776,-74.50943 1.36502,-17.52567 3.95505,-34.76648 9.52527,-51.37018 17.13058,-51.06296 48.72177,-90.87988 94.98657,-119.88498 z"
       id="path1"
       inkscape:label="C"
       transform="translate(-83.99685,3.2914117)"
       style="fill:#0823a8;fill-opacity:1;stroke-width:0;stroke-dasharray:none" /></g></svg>
