<svg version="1.1" id="Layer_1" xmlns="http://www.w3.org/2000/svg" xmlns:xlink="http://www.w3.org/1999/xlink" x="0px" y="0px"
	 width="100%" viewBox="0 0 1024 1024" enable-background="new 0 0 1024 1024" xml:space="preserve">
<path fill="#000000" opacity="1.000000" stroke="none" 
	d="
M648.214050,253.698792 
	C672.863220,265.223297 695.355225,279.287964 714.749146,298.041687 
	C729.294922,312.107208 735.022766,329.070007 729.447327,348.497803 
	C724.008545,367.449524 710.588623,379.392151 691.361084,383.597809 
	C676.939270,386.752289 663.257690,383.872040 651.209656,374.736969 
	C630.182007,358.793396 608.460388,344.025482 583.495850,334.711670 
	C559.039978,325.587677 533.573486,323.945068 508.124634,326.794403 
	C444.772369,333.887390 397.983917,366.914886 366.635101,421.721313 
	C348.203125,453.945526 341.013367,489.120819 345.191620,526.145386 
	C352.079407,587.179688 382.808685,633.179565 434.618805,665.454895 
	C454.959625,678.126282 477.093201,686.440491 500.850494,689.344421 
	C531.464966,693.086487 561.740967,691.278687 590.656250,679.322815 
	C611.734192,670.607544 630.854858,658.489197 648.530334,644.123230 
	C657.426819,636.892395 667.191284,632.398132 678.822327,631.365173 
	C701.343994,629.365112 726.394409,648.372009 730.326782,670.818665 
	C733.850891,690.934875 727.722900,707.081238 712.484741,720.830566 
	C678.680298,751.331970 639.592834,771.423157 595.507507,781.917175 
	C568.850891,788.262573 541.875793,790.831726 514.316040,789.646545 
	C462.513519,787.418762 415.232178,771.910400 372.153442,743.578369 
	C318.524261,708.307434 281.583557,659.904724 260.407013,599.325500 
	C249.741867,568.815979 244.554840,537.354187 245.179657,505.193390 
	C246.612015,431.466980 272.699432,367.461365 323.349091,313.761871 
	C360.184784,274.708099 405.014008,248.565536 456.837891,235.319000 
	C522.479553,218.540558 586.282776,225.526566 648.214050,253.698792 
M415.007568,322.462402 
	C445.557129,304.230530 478.367828,293.556030 514.071716,291.452911 
	C540.529053,289.894470 566.293762,292.891785 591.350464,301.121429 
	C620.854553,310.811768 646.442322,327.705048 671.053650,346.181885 
	C678.783081,351.984711 686.903748,351.323944 693.145447,344.201599 
	C698.916565,337.616272 698.172363,329.790466 690.957947,323.032318 
	C685.243469,317.679260 679.457703,312.387634 673.003662,307.910248 
	C614.248230,267.149414 549.426575,252.217804 479.326965,265.918793 
	C403.977112,280.645905 347.499481,323.033936 310.071747,389.932312 
	C282.237885,439.682556 274.434418,493.332184 283.285858,549.401672 
	C291.103394,598.922180 312.580383,642.256042 347.322052,678.015991 
	C406.893433,739.333557 479.687225,764.585205 564.712402,752.701172 
	C599.645142,747.818604 632.129883,735.888000 661.769714,716.600403 
	C672.687439,709.496033 682.854431,701.388550 692.168823,692.274658 
	C697.196655,687.355164 698.346863,680.790710 695.555481,675.369751 
	C692.324829,669.095520 686.145752,665.560669 679.684387,666.335388 
	C675.125427,666.882080 671.828308,669.862488 668.436890,672.492065 
	C656.439209,681.794617 643.969727,690.343872 630.860291,698.046509 
	C589.446289,722.379761 544.806702,730.420471 497.626099,723.753418 
	C450.500397,717.094116 409.796753,696.679016 375.636749,663.458679 
	C348.179657,636.756897 328.941010,604.977417 318.293488,568.226990 
	C311.255707,543.935608 308.517639,519.114319 310.495728,493.717560 
	C311.860748,476.191895 314.450775,458.951080 320.020996,442.347382 
	C337.151581,391.284424 368.742767,351.467499 415.007568,322.462402 
z"/>
<path fill="#000000" opacity="1.000000" stroke="none" 
	d="
M742.749146,489.886597 
	C747.089050,469.299042 751.443115,449.143219 755.621399,428.950989 
	C758.826904,413.459717 769.410339,405.535309 785.124146,407.144196 
	C796.614929,408.320740 801.933228,415.466095 799.558411,426.876740 
	C794.106262,453.074066 788.520081,479.243439 783.037109,505.434387 
	C777.110535,533.744629 771.209351,562.060181 765.355774,590.385620 
	C762.096191,606.158813 753.037537,614.361755 738.575073,614.174561 
	C728.685364,614.046570 722.093201,608.850342 717.990845,600.106750 
	C709.931885,582.930298 701.856262,565.761658 693.783875,548.591492 
	C686.563354,533.233093 679.361328,517.865845 672.079346,502.536682 
	C671.325989,500.950775 670.892761,499.051636 668.694031,497.781555 
	C666.185547,503.898834 665.662415,510.361603 664.319153,516.567444 
	C658.830750,541.924255 653.693787,567.357056 648.238586,592.721252 
	C644.721191,609.075256 629.532349,618.067627 614.205750,613.166443 
	C606.690491,610.763184 603.291321,604.927979 603.967590,597.007874 
	C604.935059,585.678955 607.944153,574.766968 610.229858,563.715637 
	C619.024963,521.191895 627.987793,478.702728 636.988586,436.221924 
	C637.985718,431.515747 639.274902,426.806641 641.042114,422.341736 
	C644.898315,412.599213 652.153259,407.220276 662.790588,406.783875 
	C673.184387,406.357391 680.908569,410.666290 685.332703,420.135254 
	C695.405396,441.693542 705.318054,463.326630 715.287598,484.933105 
	C720.867676,497.026520 726.427124,509.129425 732.008667,521.222168 
	C732.614685,522.535278 733.108459,523.962708 734.995789,525.046509 
	C738.510803,513.440308 739.888123,501.704132 742.749146,489.886597 
z"/>
<path fill="#000000" opacity="1.000000" stroke="none" 
	d="
M502.948120,498.074890 
	C507.692566,475.188293 512.324158,452.707306 517.037659,430.243500 
	C521.228455,410.270599 536.624573,405.931061 551.670959,409.968140 
	C560.085999,412.225983 563.102478,419.933929 560.808960,430.891052 
	C557.164307,448.303070 553.688965,465.752655 549.809692,483.112091 
	C548.725708,487.962860 550.365112,488.835022 554.707947,488.802185 
	C573.861389,488.657379 593.016663,488.747681 612.171265,488.760193 
	C619.555664,488.765015 619.664795,488.795715 618.272339,495.784119 
	C616.127869,506.546478 613.668701,517.247925 611.650818,528.032776 
	C610.880249,532.151245 608.928406,533.412903 604.870483,533.378723 
	C585.050964,533.211853 565.228333,533.407776 545.409424,533.211060 
	C540.891296,533.166260 538.971375,534.655518 538.076599,539.173218 
	C534.392090,557.777344 530.436218,576.329956 526.371216,594.855713 
	C522.961060,610.397034 510.935272,618.452332 495.242401,616.035095 
	C485.641815,614.556396 480.353699,607.349792 482.304596,597.682617 
	C486.747101,575.669006 491.440338,553.706116 496.015106,531.719116 
	C498.319031,520.645996 500.586792,509.565277 502.948120,498.074890 
z"/>
</svg>