<?xml version="1.0" encoding="UTF-8"?>
<svg width="1080" height="1080" version="1.1" viewBox="0 0 1080 1080" xml:space="preserve" xmlns="http://www.w3.org/2000/svg"><g transform="matrix(1.9162 0 0 1.9162 -308.77 -439.98)" stroke-width="0"><rect x="161.13" y="229.61" width="563.61" height="563.61" fill="#0823a8" style="paint-order:stroke fill markers"/><g transform="matrix(.625 0 0 .625 166.1 191.78)" fill="#fff"><path transform="translate(-83.997 3.2914)" d="m742.75 489.89c4.3399-20.588 8.694-40.743 12.872-60.936 3.2055-15.491 13.789-23.416 29.503-21.807 11.491 1.1765 16.809 8.3219 14.434 19.733-5.4522 26.197-11.038 52.367-16.521 78.558-5.9266 28.31-11.828 56.626-17.681 84.951-3.2596 15.773-12.318 23.976-26.781 23.789-9.8897-0.12799-16.482-5.3242-20.584-14.068-8.059-17.176-16.135-34.345-24.207-51.515-7.2205-15.358-14.423-30.726-21.705-46.055-0.75336-1.5859-1.1866-3.485-3.3853-4.7551-2.5085 6.1173-3.0316 12.58-4.3749 18.786-5.4884 25.357-10.625 50.79-16.081 76.154-3.5174 16.354-18.706 25.346-34.033 20.445-7.5153-2.4033-10.914-8.2385-10.238-16.159 0.96747-11.329 3.9766-22.241 6.2623-33.292 8.7951-42.524 17.758-85.013 26.759-127.49 0.99713-4.7062 2.2863-9.4153 4.0535-13.88 3.8562-9.7425 11.111-15.121 21.748-15.558 10.394-0.42649 18.118 3.8824 22.542 13.351 10.073 21.558 19.985 43.191 29.955 64.798 5.5801 12.093 11.14 24.196 16.721 36.289 0.60601 1.3131 1.0998 2.7405 2.9871 3.8243 3.515-11.606 4.8923-23.342 7.7534-35.16z"/><path transform="translate(-83.997 3.2914)" d="m502.95 498.07c4.7444-22.887 9.376-45.368 14.09-67.831 4.1908-19.973 19.587-24.312 34.633-20.275 8.415 2.2578 11.432 9.9658 9.138 20.923-3.6446 17.412-7.12 34.862-10.999 52.221-1.084 4.8508 0.55542 5.7229 4.8983 5.6901 19.153-0.1448 38.309-0.0545 57.463-0.042 7.3844 5e-3 7.4935 0.0355 6.1011 7.0239-2.1445 10.762-4.6036 21.464-6.6215 32.249-0.77057 4.1185-2.7224 5.3801-6.7803 5.3459-19.82-0.16687-39.642 0.0291-59.461-0.16766-4.5181-0.0448-6.438 1.4445-7.3328 5.9622-3.6845 18.604-7.6404 37.157-11.705 55.682-3.4102 15.541-15.436 23.597-31.129 21.179-9.6006-1.4787-14.889-8.6853-12.938-18.352 4.4425-22.014 9.1357-43.976 13.711-65.964 2.3039-11.073 4.5717-22.154 6.933-33.644z"/><path transform="translate(-83.997 3.2914)" d="m648.21 253.7c24.649 11.525 47.141 25.589 66.535 44.343 14.546 14.066 20.274 31.028 14.698 50.456-5.4388 18.952-18.859 30.894-38.086 35.1-14.422 3.1545-28.103 0.27423-40.151-8.8608-21.028-15.944-42.749-30.711-67.714-40.025-24.456-9.124-49.922-10.767-75.371-7.9173-63.352 7.093-110.14 40.12-141.49 94.927-18.432 32.224-25.622 67.4-21.443 104.42 6.8878 61.034 37.617 107.03 89.427 139.31 20.341 12.671 42.474 20.986 66.232 23.89 30.614 3.7421 60.89 1.9343 89.806-10.022 21.078-8.7153 40.199-20.834 57.874-35.2 8.8965-7.2308 18.661-11.725 30.292-12.758 22.522-2.0001 47.572 17.007 51.504 39.453 3.5241 20.116-2.6039 36.263-17.842 50.012-33.804 30.501-72.892 50.593-116.98 61.087-26.657 6.3454-53.632 8.9146-81.191 7.7294-51.803-2.2278-99.084-17.736-142.16-46.068-53.629-35.271-90.57-83.674-111.75-144.25-10.665-30.51-15.852-61.971-15.227-94.132 1.4324-73.726 27.52-137.73 78.169-191.43 36.836-39.054 81.665-65.196 133.49-78.443 65.642-16.778 129.44-9.7924 191.38 18.38m-233.21 68.764c30.55-18.232 63.36-28.906 99.064-31.009 26.457-1.5584 52.222 1.4389 77.279 9.6685 29.504 9.6903 55.092 26.584 79.703 45.06 7.7294 5.8028 15.85 5.142 22.092-1.9803 5.7711-6.5853 5.0269-14.411-2.1875-21.169-5.7145-5.3531-11.5-10.645-17.954-15.122-58.755-40.761-123.58-55.692-193.68-41.991-75.35 14.727-131.83 57.115-169.26 124.01-27.834 49.75-35.637 103.4-26.786 159.47 7.8175 49.521 29.295 92.854 64.036 128.61 59.571 61.318 132.37 86.569 217.39 74.685 34.933-4.8826 67.417-16.813 97.057-36.101 10.918-7.1044 21.085-15.212 30.399-24.326 5.0278-4.9195 6.178-11.484 3.3867-16.905-3.2306-6.2742-9.4097-9.8091-15.871-9.0344-4.559 0.54669-7.8561 3.5271-11.248 6.1567-11.998 9.3026-24.467 17.852-37.577 25.554-41.414 24.333-86.054 32.374-133.23 25.707-47.126-6.6593-87.829-27.074-121.99-60.295-27.457-26.702-46.696-58.481-57.343-95.232-7.0378-24.291-9.7758-49.113-7.7978-74.509 1.365-17.526 3.955-34.766 9.5253-51.37 17.131-51.063 48.722-90.88 94.987-119.88z"/></g></g><g transform="matrix(1.9162 0 0 1.9162 -308.77 -439.98)" display="none" fill="#0823a8" stroke-width="0"><path transform="translate(-83.997 3.2914)" d="m742.75 489.89c4.3399-20.588 8.694-40.743 12.872-60.936 3.2055-15.491 13.789-23.416 29.503-21.807 11.491 1.1765 16.809 8.3219 14.434 19.733-5.4522 26.197-11.038 52.367-16.521 78.558-5.9266 28.31-11.828 56.626-17.681 84.951-3.2596 15.773-12.318 23.976-26.781 23.789-9.8897-0.12799-16.482-5.3242-20.584-14.068-8.059-17.176-16.135-34.345-24.207-51.515-7.2205-15.358-14.423-30.726-21.705-46.055-0.75336-1.5859-1.1866-3.485-3.3853-4.7551-2.5085 6.1173-3.0316 12.58-4.3749 18.786-5.4884 25.357-10.625 50.79-16.081 76.154-3.5174 16.354-18.706 25.346-34.033 20.445-7.5153-2.4033-10.914-8.2385-10.238-16.159 0.96747-11.329 3.9766-22.241 6.2623-33.292 8.7951-42.524 17.758-85.013 26.759-127.49 0.99713-4.7062 2.2863-9.4153 4.0535-13.88 3.8562-9.7425 11.111-15.121 21.748-15.558 10.394-0.42649 18.118 3.8824 22.542 13.351 10.073 21.558 19.985 43.191 29.955 64.798 5.5801 12.093 11.14 24.196 16.721 36.289 0.60601 1.3131 1.0998 2.7405 2.9871 3.8243 3.515-11.606 4.8923-23.342 7.7534-35.16z"/><path transform="translate(-83.997 3.2914)" d="m502.95 498.07c4.7444-22.887 9.376-45.368 14.09-67.831 4.1908-19.973 19.587-24.312 34.633-20.275 8.415 2.2578 11.432 9.9658 9.138 20.923-3.6446 17.412-7.12 34.862-10.999 52.221-1.084 4.8508 0.55542 5.7229 4.8983 5.6901 19.153-0.1448 38.309-0.0545 57.463-0.042 7.3844 5e-3 7.4935 0.0355 6.1011 7.0239-2.1445 10.762-4.6036 21.464-6.6215 32.249-0.77057 4.1185-2.7224 5.3801-6.7803 5.3459-19.82-0.16687-39.642 0.0291-59.461-0.16766-4.5181-0.0448-6.438 1.4445-7.3328 5.9622-3.6845 18.604-7.6404 37.157-11.705 55.682-3.4102 15.541-15.436 23.597-31.129 21.179-9.6006-1.4787-14.889-8.6853-12.938-18.352 4.4425-22.014 9.1357-43.976 13.711-65.964 2.3039-11.073 4.5717-22.154 6.933-33.644z"/><path transform="translate(-83.997 3.2914)" d="m648.21 253.7c24.649 11.525 47.141 25.589 66.535 44.343 14.546 14.066 20.274 31.028 14.698 50.456-5.4388 18.952-18.859 30.894-38.086 35.1-14.422 3.1545-28.103 0.27423-40.151-8.8608-21.028-15.944-42.749-30.711-67.714-40.025-24.456-9.124-49.922-10.767-75.371-7.9173-63.352 7.093-110.14 40.12-141.49 94.927-18.432 32.224-25.622 67.4-21.443 104.42 6.8878 61.034 37.617 107.03 89.427 139.31 20.341 12.671 42.474 20.986 66.232 23.89 30.614 3.7421 60.89 1.9343 89.806-10.022 21.078-8.7153 40.199-20.834 57.874-35.2 8.8965-7.2308 18.661-11.725 30.292-12.758 22.522-2.0001 47.572 17.007 51.504 39.453 3.5241 20.116-2.6039 36.263-17.842 50.012-33.804 30.501-72.892 50.593-116.98 61.087-26.657 6.3454-53.632 8.9146-81.191 7.7294-51.803-2.2278-99.084-17.736-142.16-46.068-53.629-35.271-90.57-83.674-111.75-144.25-10.665-30.51-15.852-61.971-15.227-94.132 1.4324-73.726 27.52-137.73 78.169-191.43 36.836-39.054 81.665-65.196 133.49-78.443 65.642-16.778 129.44-9.7924 191.38 18.38m-233.21 68.764c30.55-18.232 63.36-28.906 99.064-31.009 26.457-1.5584 52.222 1.4389 77.279 9.6685 29.504 9.6903 55.092 26.584 79.703 45.06 7.7294 5.8028 15.85 5.142 22.092-1.9803 5.7711-6.5853 5.0269-14.411-2.1875-21.169-5.7145-5.3531-11.5-10.645-17.954-15.122-58.755-40.761-123.58-55.692-193.68-41.991-75.35 14.727-131.83 57.115-169.26 124.01-27.834 49.75-35.637 103.4-26.786 159.47 7.8175 49.521 29.295 92.854 64.036 128.61 59.571 61.318 132.37 86.569 217.39 74.685 34.933-4.8826 67.417-16.813 97.057-36.101 10.918-7.1044 21.085-15.212 30.399-24.326 5.0278-4.9195 6.178-11.484 3.3867-16.905-3.2306-6.2742-9.4097-9.8091-15.871-9.0344-4.559 0.54669-7.8561 3.5271-11.248 6.1567-11.998 9.3026-24.467 17.852-37.577 25.554-41.414 24.333-86.054 32.374-133.23 25.707-47.126-6.6593-87.829-27.074-121.99-60.295-27.457-26.702-46.696-58.481-57.343-95.232-7.0378-24.291-9.7758-49.113-7.7978-74.509 1.365-17.526 3.955-34.766 9.5253-51.37 17.131-51.063 48.722-90.88 94.987-119.88z"/></g></svg>
